<?xml version="1.0" standalone="no"?>
<!DOCTYPE svg PUBLIC "-//W3C//DTD SVG 20010904//EN"
 "http://www.w3.org/TR/2001/REC-SVG-20010904/DTD/svg10.dtd">
<svg version="1.0" xmlns="http://www.w3.org/2000/svg"
 width="984.000000pt" height="984.000000pt" viewBox="0 0 984.000000 984.000000"
 preserveAspectRatio="xMidYMid meet">
<metadata>
Created by potrace 1.15, written by Peter Selinger 2001-2017
</metadata>
<g transform="translate(0.000000,984.000000) scale(0.100000,-0.100000)"
fill="#000000" stroke="none">
<path d="M5740 7995 l0 -205 -205 0 -205 0 0 -205 0 -205 -410 0 -410 0 0
-205 0 -205 -410 0 -410 0 0 -205 0 -205 -205 0 -205 0 0 -205 0 -205 -410 0
-410 0 0 205 0 205 -205 0 -205 0 0 -205 0 -205 -205 0 -205 0 0 -615 0 -615
-205 0 -205 0 0 -205 0 -205 -205 0 -205 0 0 -820 0 -820 205 0 205 0 0 -205
0 -205 205 0 205 0 0 -205 0 -205 410 0 410 0 0 -205 0 -205 1435 0 1435 0 0
-205 0 -205 615 0 615 0 0 205 0 205 205 0 205 0 0 615 0 615 615 0 615 0 0
205 0 205 205 0 205 0 0 820 0 820 205 0 205 0 0 615 0 615 -205 0 -205 0 0
205 0 205 -205 0 -205 0 0 -205 0 -205 205 0 205 0 0 -615 0 -615 -205 0 -205
0 0 -206 0 -206 -392 3 c-216 2 -493 3 -615 1 l-223 -2 0 -205 0 -205 -615 0
-615 0 0 410 0 410 -615 0 -615 0 0 205 0 205 -167 0 c-107 0 -181 5 -203 13
l-35 12 1 193 1 192 -209 0 -208 0 0 410 0 410 410 0 410 0 0 205 0 206 615
-3 615 -3 0 413 0 412 615 0 615 0 0 -410 0 -410 205 0 205 0 0 -205 0 -205
205 0 205 0 0 205 0 205 -205 0 -205 0 0 410 0 410 -205 0 -205 0 0 205 0 205
-615 0 -615 0 0 -205z m-3280 -2050 l0 -205 410 0 410 0 0 -205 0 -205 410 0
410 0 0 -205 0 -205 205 0 205 0 0 -205 0 -205 410 0 410 0 0 -205 0 -205 205
0 205 0 0 -205 0 -205 615 0 615 0 0 205 0 205 615 0 615 0 0 -410 0 -410
-410 0 -410 0 0 205 0 205 -205 0 -205 0 0 -410 0 -410 -205 0 -205 0 0 -615
0 -615 -615 0 -615 0 0 410 0 410 -205 0 -205 0 0 -205 0 -205 -1230 0 -1230
0 0 205 0 205 -410 0 -410 0 0 205 0 205 -205 0 -205 0 0 410 0 410 205 0 205
0 0 615 0 615 205 0 205 0 0 615 0 615 205 0 205 0 0 -205z"/>
<path d="M4920 3895 l0 -205 205 0 205 0 0 205 0 205 -205 0 -205 0 0 -205z"/>
<path d="M3690 3485 l0 -205 -205 0 -205 0 0 -410 0 -410 410 0 410 0 0 410 0
410 205 0 205 0 0 205 0 205 -410 0 -410 0 0 -205z"/>
<path d="M5740 3075 l0 -205 -205 0 -205 0 0 -205 0 -205 205 0 205 0 0 205 0
205 205 0 205 0 0 205 0 205 -205 0 -205 0 0 -205z"/>
</g>
</svg>
